<?xml version="1.0" encoding="UTF-8" standalone="no"?>
<!DOCTYPE svg PUBLIC "-//W3C//DTD SVG 1.1//EN" "http://www.w3.org/Graphics/SVG/1.1/DTD/svg11.dtd">
<svg width="100%" height="100%" viewBox="0 0 299 426" version="1.1" xmlns="http://www.w3.org/2000/svg" xmlns:xlink="http://www.w3.org/1999/xlink" xml:space="preserve" xmlns:serif="http://www.serif.com/" style="fill-rule:evenodd;clip-rule:evenodd;stroke-linejoin:round;stroke-miterlimit:2;">
    <g id="b" transform="matrix(1,0,0,1,-2496.37,-1532.46)">
        <g transform="matrix(1,0,0,1,1724.09,-28.0743)">
            <path d="M1071.21,1835.08C1071.21,1863.6 1064.62,1889.24 1051.44,1911.98C1038.26,1934.73 1020.48,1952.69 998.1,1965.86C975.716,1979.04 950.264,1985.63 921.742,1985.63C893.221,1985.63 867.769,1979.04 845.385,1965.86C823.001,1952.69 805.22,1934.73 792.043,1911.98C778.865,1889.24 772.276,1863.6 772.276,1835.08C772.276,1806.56 778.865,1780.93 792.043,1758.18C805.22,1735.44 823.001,1717.48 845.385,1704.3C867.769,1691.12 893.221,1684.53 921.742,1684.53C950.264,1684.53 975.716,1691.12 998.1,1704.3C1020.48,1717.48 1038.26,1735.44 1051.44,1758.18C1064.62,1780.93 1071.21,1806.56 1071.21,1835.08ZM1018.14,1835.08C1018.14,1815.95 1013.89,1798.62 1005.41,1783.09C996.927,1767.57 985.464,1755.38 971.023,1746.54C956.582,1737.69 940.155,1733.27 921.742,1733.27C903.33,1733.27 886.903,1737.69 872.462,1746.54C858.021,1755.38 846.558,1767.57 838.074,1783.09C829.59,1798.62 825.348,1815.95 825.348,1835.08C825.348,1854.22 829.59,1871.55 838.074,1887.07C846.558,1902.59 858.021,1914.78 872.462,1923.62C886.903,1932.47 903.33,1936.89 921.742,1936.89C940.155,1936.89 956.582,1932.47 971.023,1923.62C985.464,1914.78 996.927,1902.59 1005.41,1887.07C1013.89,1871.55 1018.14,1854.22 1018.14,1835.08Z" style="fill:rgb(254,76,95);fill-rule:nonzero;"/>
        </g>
        <g transform="matrix(-1,0,0,1,3567.58,-28.0743)">
            <path d="M772.276,1835.08C772.276,1806.56 778.865,1780.93 792.043,1758.18C805.22,1735.44 823.001,1717.48 845.385,1704.3C867.769,1691.12 893.221,1684.53 921.742,1684.53C950.264,1684.53 975.716,1691.12 998.1,1704.3C1020.48,1717.48 1038.26,1735.44 1051.44,1758.18C1060.09,1773.11 1065.9,1789.29 1068.88,1806.71C1070.07,1813.77 1068.1,1820.99 1063.48,1826.46C1058.86,1831.92 1052.07,1835.08 1044.91,1835.08C1044.91,1835.08 1044.91,1835.08 1044.91,1835.08C1030.77,1835.08 1018.57,1825.14 1015.73,1811.29C1013.68,1801.3 1010.23,1791.91 1005.41,1783.09C996.927,1767.57 985.464,1755.38 971.023,1746.54C956.582,1737.69 940.155,1733.27 921.742,1733.27C903.33,1733.27 886.903,1737.69 872.462,1746.54C858.021,1755.38 846.558,1767.57 838.074,1783.09C829.59,1798.62 825.348,1815.95 825.348,1835.08" style="fill:url(#_Linear1);fill-rule:nonzero;"/>
        </g>
        <g transform="matrix(1,0,0,1,1385,0)">
            <path d="M1164.44,1807.01C1164.44,1826.14 1168.68,1843.47 1177.16,1859C1185.65,1874.52 1197.11,1886.7 1211.55,1895.55C1225.99,1904.39 1242.42,1908.82 1260.83,1908.82C1279.25,1908.82 1295.67,1904.39 1310.11,1895.55C1324.55,1886.7 1336.02,1874.52 1344.5,1859C1352.99,1843.47 1357.23,1826.14 1357.23,1807.01L1410.3,1807.01C1410.3,1835.53 1403.71,1861.16 1390.53,1883.91C1377.36,1906.65 1359.57,1924.61 1337.19,1937.79C1314.81,1950.97 1289.35,1957.56 1260.83,1957.56C1232.31,1957.56 1206.86,1950.97 1184.48,1937.79C1162.09,1924.61 1144.31,1906.65 1131.13,1883.91C1117.96,1861.16 1111.37,1835.53 1111.37,1807.01C1111.37,1807.01 1111.37,1627.87 1111.37,1558.99C1111.37,1544.34 1123.25,1532.46 1137.9,1532.46C1137.9,1532.46 1137.9,1532.46 1137.9,1532.46C1152.56,1532.46 1164.44,1544.34 1164.44,1558.99C1164.44,1627.87 1164.44,1807.01 1164.44,1807.01Z" style="fill:url(#_Linear2);fill-rule:nonzero;"/>
        </g>
    </g>
    <defs>
        <linearGradient id="_Linear1" x1="0" y1="0" x2="1" y2="0" gradientUnits="userSpaceOnUse" gradientTransform="matrix(298.932,0,0,150.549,772.276,1759.81)"><stop offset="0" style="stop-color:rgb(254,76,95);stop-opacity:1"/><stop offset="1" style="stop-color:rgb(183,70,90);stop-opacity:1"/></linearGradient>
        <linearGradient id="_Linear2" x1="0" y1="0" x2="1" y2="0" gradientUnits="userSpaceOnUse" gradientTransform="matrix(298.932,0,0,425.096,1111.37,1745.01)"><stop offset="0" style="stop-color:rgb(152,67,89);stop-opacity:1"/><stop offset="1" style="stop-color:rgb(254,76,95);stop-opacity:1"/></linearGradient>
    </defs>
</svg>
