<?xml version="1.0" encoding="UTF-8" standalone="no"?>
<!DOCTYPE svg PUBLIC "-//W3C//DTD SVG 1.1//EN" "http://www.w3.org/Graphics/SVG/1.1/DTD/svg11.dtd">
<svg width="100%" height="100%" viewBox="0 0 971 365" version="1.1" xmlns="http://www.w3.org/2000/svg" xmlns:xlink="http://www.w3.org/1999/xlink" xml:space="preserve" xmlns:serif="http://www.serif.com/" style="fill-rule:evenodd;clip-rule:evenodd;stroke-linejoin:round;stroke-miterlimit:2;">
    <g id="Logo-Complete-Curves" transform="matrix(1,0,0,1,-1434.98,-893.411)">
        <path d="M2355.02,1158.41C2355.02,1158.41 2355.02,984.431 2355.02,918.411C2355.02,904.604 2343.83,893.411 2330.02,893.411L2330.02,893.411C2316.22,893.411 2305.02,904.604 2305.02,918.411L2305.02,1158.41C2305.02,1213.64 2328.21,1258.41 2380,1258.41L2380,1258.41C2386.63,1258.41 2392.99,1255.78 2397.68,1251.09C2402.37,1246.4 2405,1240.04 2405,1233.41C2405,1233.41 2405,1233.41 2405,1233.4C2405,1219.6 2393.8,1208.41 2380,1208.41C2380,1208.41 2380,1208.41 2380,1208.41C2358.09,1208.41 2355.02,1186.03 2355.02,1158.41Z" style="fill:rgb(254,76,95);"/>
        <g transform="matrix(1.00094,0,0,1,-2.21453,0)">
            <path d="M2147.48,1258.1C2138.3,1258.11 2129.45,1253.05 2125.07,1244.28C2100.55,1195.22 2042.17,1078.46 2017.61,1029.32C2011.88,1017.86 2017.37,1001.46 2028.84,995.754C2028.84,995.753 2028.84,995.753 2028.84,995.752C2041.18,989.614 2056.17,994.627 2062.33,1006.96L2147.48,1177.28L2232.62,1006.96C2238.79,994.627 2253.77,989.614 2266.12,995.752C2266.12,995.753 2266.12,995.753 2266.12,995.754C2278.69,1002.01 2283.63,1016.75 2277.35,1029.32C2252.78,1078.46 2194.41,1195.22 2169.89,1244.28C2165.5,1253.05 2156.66,1258.11 2147.48,1258.1Z" style="fill:rgb(254,76,95);"/>
        </g>
        <path d="M1724.98,1125.48L1724.98,1125.91C1724.98,1199.09 1784.3,1258.41 1857.48,1258.41C1894.31,1258.41 1928.96,1243.12 1953.67,1217.03C1958.94,1211.48 1961.37,1203.82 1960.27,1196.24C1959.16,1188.67 1954.65,1182.02 1948.03,1178.19C1948.03,1178.19 1948.03,1178.19 1948.03,1178.19C1938.01,1172.4 1925.33,1174.25 1917.38,1182.65C1901.99,1198.89 1880.41,1208.41 1857.48,1208.41C1820.63,1208.41 1789.43,1184.25 1778.83,1150.91L1964.98,1150.91C1971.61,1150.91 1977.97,1148.28 1982.66,1143.59C1987.34,1138.9 1989.98,1132.54 1989.98,1125.91L1989.98,1125.91C1989.98,1052.73 1930.66,993.411 1857.48,993.411C1784.45,993.411 1725.22,1052.5 1724.98,1125.48ZM1936.12,1100.91C1925.53,1067.57 1894.33,1043.41 1857.48,1043.41C1820.63,1043.41 1789.43,1067.57 1778.83,1100.91L1936.12,1100.91Z" style="fill:rgb(254,76,95);"/>
        <path d="M1434.98,1125.91L1434.98,918.411C1434.98,904.604 1446.17,893.411 1459.98,893.411L1459.98,893.411C1473.79,893.411 1484.98,904.604 1484.98,918.411L1484.98,1022.25C1507.62,1004.21 1536.3,993.411 1567.48,993.411C1640.61,993.411 1699.98,1052.78 1699.98,1125.91C1699.98,1199.04 1640.61,1258.41 1567.48,1258.41C1494.35,1258.41 1434.98,1199.04 1434.98,1125.91ZM1567.48,1043.41C1613.01,1043.41 1649.98,1080.38 1649.98,1125.91C1649.98,1171.44 1613.01,1208.41 1567.48,1208.41C1521.94,1208.41 1484.98,1171.44 1484.98,1125.91C1484.98,1080.38 1521.94,1043.41 1567.48,1043.41Z" style="fill:rgb(254,76,95);"/>
    </g>
</svg>
