<?xml version="1.0" encoding="UTF-8" standalone="no"?>
<!DOCTYPE svg PUBLIC "-//W3C//DTD SVG 1.1//EN" "http://www.w3.org/Graphics/SVG/1.1/DTD/svg11.dtd">
<svg width="100%" height="100%" viewBox="0 0 1092 426" version="1.1" xmlns="http://www.w3.org/2000/svg" xmlns:xlink="http://www.w3.org/1999/xlink" xml:space="preserve" xmlns:serif="http://www.serif.com/" style="fill-rule:evenodd;clip-rule:evenodd;stroke-linejoin:round;stroke-miterlimit:2;">
    <g id="Title-Custom" transform="matrix(1,0,0,1,-119.376,-129.957)">
        <g id="l" transform="matrix(10.8309,0,0,10.8309,-3971.07,-4498.6)">
            <path d="M474.912,466.597C473.446,466.597 472.146,466.295 471.012,465.495C469.879,464.695 468.996,463.603 468.362,462.22C467.729,460.836 467.412,459.245 467.412,457.445L467.412,430.145C467.412,429.411 467.641,428.811 468.099,428.345C468.556,427.878 469.145,427.645 469.864,427.645C470.583,427.645 471.171,427.878 471.629,428.345C472.086,428.811 472.315,429.411 472.315,430.145L472.315,457.445C472.315,458.678 472.276,459.325 472.743,460.125C473.21,460.925 474.179,461.695 474.912,461.695L476.162,461.695C476.829,461.695 477.371,461.924 477.787,462.381C478.204,462.839 478.412,463.427 478.412,464.146C478.412,464.865 478.096,465.453 477.462,465.911C476.829,466.369 476.012,466.597 475.012,466.597L474.912,466.597Z" style="fill:url(#_Linear1);fill-rule:nonzero;"/>
        </g>
        <g id="v" transform="matrix(1.00959,0,0,1,-351.929,-1410.26)">
            <g transform="matrix(-0.829291,-0.406262,-0.517275,1.1654,2679.78,327.261)">
                <path d="M660.362,1635.78C660.362,1635.78 674.903,1640.85 689.382,1645.89C706.816,1651.97 727.213,1650.13 741.472,1641.18C790.565,1610.39 903.481,1539.55 949.761,1510.52C961.1,1503.41 962.354,1490.85 952.593,1482.15C952.218,1481.82 951.842,1481.48 951.466,1481.14C946.578,1476.79 939.535,1474.01 931.947,1473.44C924.358,1472.88 916.872,1474.57 911.198,1478.14C856.752,1512.35 718.362,1599.33 718.362,1599.33L718.362,1411.22C718.362,1405.59 715.233,1400.14 709.688,1396.1C704.144,1392.06 696.657,1389.78 688.936,1389.78C688.935,1389.78 688.934,1389.78 688.934,1389.78C673.015,1389.78 660.362,1399 660.362,1410.6L660.362,1635.78Z" style="fill:rgb(254,76,95);"/>
            </g>
            <g transform="matrix(-0.829291,-0.406262,-0.517275,1.1654,2679.78,327.261)">
                <path d="M718.362,1411.22C718.362,1405.59 715.233,1400.14 709.688,1396.1C704.144,1392.06 696.657,1389.78 688.936,1389.78C688.935,1389.78 688.934,1389.78 688.934,1389.78C673.015,1389.78 660.362,1399 660.362,1410.6L660.362,1635.78L718.362,1599.33L718.362,1411.22Z" style="fill:rgb(152,67,89);"/>
            </g>
            <g transform="matrix(0.829291,-0.406262,0.517275,1.1654,-166.65,327.261)">
                <path d="M718.974,1411.13C718.981,1405.59 715.903,1400.21 710.445,1396.23C704.986,1392.25 697.612,1390 690.007,1390C689.422,1390 688.838,1390 688.254,1390C673.069,1390 661,1398.8 661,1409.86C661,1455.03 661,1565.22 661,1613.13C661,1627.05 672.22,1639.91 689.654,1645.99C704.133,1651.04 718.674,1656.11 718.674,1656.11C718.674,1656.11 718.897,1474.09 718.974,1411.13Z" style="fill:rgb(254,76,95);"/>
            </g>
        </g>
        <g id="e" transform="matrix(-1,1.22465e-16,1.22465e-16,1,1848.6,-1402.5)">
            <g transform="matrix(-1,1.22465e-16,1.22465e-16,1,2177.58,-28.0743)">
                <path d="M845.385,1704.3C867.769,1691.12 893.221,1684.53 921.742,1684.53C950.264,1684.53 975.716,1691.12 998.1,1704.3L971.023,1746.54C956.582,1737.69 940.155,1733.27 921.742,1733.27C903.33,1733.27 886.903,1737.69 872.462,1746.54" style="fill:url(#_Linear2);fill-rule:nonzero;"/>
            </g>
            <g transform="matrix(-1,1.22465e-16,1.22465e-16,1,1800.68,860.782)">
                <path d="M638.314,919.96C636.197,910.896 632.929,902.321 628.511,894.236C620.027,878.712 608.564,866.527 594.123,857.682C579.682,848.837 563.255,844.414 544.842,844.414L544.842,795.675C573.364,795.675 598.816,802.264 621.2,815.442C643.584,828.619 661.364,846.58 674.542,869.325C687.72,892.07 694.308,917.703 694.308,946.224L694.307,946.224C694.308,946.315 694.308,946.404 694.308,946.494C694.308,946.495 694.308,946.496 694.308,946.497C694.308,961.151 682.429,973.031 667.774,973.031L415.143,973.031L415.143,919.96L638.314,919.96Z" style="fill:url(#_Linear3);"/>
            </g>
            <g transform="matrix(-1,1.22465e-16,1.22465e-16,1,1800.68,860.512)">
                <path d="M544.842,844.685C526.43,844.685 510.003,849.108 495.562,857.953C481.121,866.798 469.658,878.983 461.174,894.507C452.69,910.031 448.448,927.361 448.448,946.495C448.448,965.63 452.69,982.959 461.174,998.483C469.658,1014.01 481.121,1026.19 495.562,1035.04C510.003,1043.88 526.43,1048.31 544.842,1048.31C563.255,1048.31 579.682,1043.88 594.123,1035.04C602.775,1029.74 610.358,1023.24 616.872,1015.54C624.713,1006.2 638.041,1003.67 648.766,1009.47C648.777,1009.45 648.777,1009.45 648.778,1009.45C655.729,1013.21 660.571,1019.96 661.915,1027.74C663.259,1035.53 660.957,1043.51 655.669,1049.38C645.729,1060.29 634.246,1069.6 621.2,1077.28C598.816,1090.45 573.364,1097.04 544.842,1097.04C516.321,1097.04 490.868,1090.45 468.485,1077.28C446.101,1064.1 428.32,1046.14 415.143,1023.39C401.965,1000.65 395.376,975.016 395.376,946.495C395.376,917.974 401.965,892.341 415.143,869.596C428.32,846.851 446.101,828.89 468.485,815.712C490.868,802.535 516.321,795.946 544.842,795.946" style="fill:url(#_Linear4);fill-rule:nonzero;"/>
            </g>
        </g>
        <g id="b" transform="matrix(1,0,0,1,-2376.99,-1402.5)">
            <g transform="matrix(1,0,0,1,1724.09,-28.0743)">
                <path d="M1071.21,1835.08C1071.21,1863.6 1064.62,1889.24 1051.44,1911.98C1038.26,1934.73 1020.48,1952.69 998.1,1965.86C975.716,1979.04 950.264,1985.63 921.742,1985.63C893.221,1985.63 867.769,1979.04 845.385,1965.86C823.001,1952.69 805.22,1934.73 792.043,1911.98C778.865,1889.24 772.276,1863.6 772.276,1835.08C772.276,1806.56 778.865,1780.93 792.043,1758.18C805.22,1735.44 823.001,1717.48 845.385,1704.3C867.769,1691.12 893.221,1684.53 921.742,1684.53C950.264,1684.53 975.716,1691.12 998.1,1704.3C1020.48,1717.48 1038.26,1735.44 1051.44,1758.18C1064.62,1780.93 1071.21,1806.56 1071.21,1835.08ZM1018.14,1835.08C1018.14,1815.95 1013.89,1798.62 1005.41,1783.09C996.927,1767.57 985.464,1755.38 971.023,1746.54C956.582,1737.69 940.155,1733.27 921.742,1733.27C903.33,1733.27 886.903,1737.69 872.462,1746.54C858.021,1755.38 846.558,1767.57 838.074,1783.09C829.59,1798.62 825.348,1815.95 825.348,1835.08C825.348,1854.22 829.59,1871.55 838.074,1887.07C846.558,1902.59 858.021,1914.78 872.462,1923.62C886.903,1932.47 903.33,1936.89 921.742,1936.89C940.155,1936.89 956.582,1932.47 971.023,1923.62C985.464,1914.78 996.927,1902.59 1005.41,1887.07C1013.89,1871.55 1018.14,1854.22 1018.14,1835.08Z" style="fill:rgb(254,76,95);fill-rule:nonzero;"/>
            </g>
            <g transform="matrix(-1,0,0,1,3567.58,-28.0743)">
                <path d="M772.276,1835.08C772.276,1806.56 778.865,1780.93 792.043,1758.18C805.22,1735.44 823.001,1717.48 845.385,1704.3C867.769,1691.12 893.221,1684.53 921.742,1684.53C950.264,1684.53 975.716,1691.12 998.1,1704.3C1020.48,1717.48 1038.26,1735.44 1051.44,1758.18C1060.09,1773.11 1065.9,1789.29 1068.88,1806.71C1070.07,1813.77 1068.1,1820.99 1063.48,1826.46C1058.86,1831.92 1052.07,1835.08 1044.91,1835.08C1044.91,1835.08 1044.91,1835.08 1044.91,1835.08C1030.77,1835.08 1018.57,1825.14 1015.73,1811.29C1013.68,1801.3 1010.23,1791.91 1005.41,1783.09C996.927,1767.57 985.464,1755.38 971.023,1746.54C956.582,1737.69 940.155,1733.27 921.742,1733.27C903.33,1733.27 886.903,1737.69 872.462,1746.54C858.021,1755.38 846.558,1767.57 838.074,1783.09C829.59,1798.62 825.348,1815.95 825.348,1835.08" style="fill:url(#_Linear5);fill-rule:nonzero;"/>
            </g>
            <g transform="matrix(1,0,0,1,1385,0)">
                <path d="M1164.44,1807.01C1164.44,1826.14 1168.68,1843.47 1177.16,1859C1185.65,1874.52 1197.11,1886.7 1211.55,1895.55C1225.99,1904.39 1242.42,1908.82 1260.83,1908.82C1279.25,1908.82 1295.67,1904.39 1310.11,1895.55C1324.55,1886.7 1336.02,1874.52 1344.5,1859C1352.99,1843.47 1357.23,1826.14 1357.23,1807.01L1410.3,1807.01C1410.3,1835.53 1403.71,1861.16 1390.53,1883.91C1377.36,1906.65 1359.57,1924.61 1337.19,1937.79C1314.81,1950.97 1289.35,1957.56 1260.83,1957.56C1232.31,1957.56 1206.86,1950.97 1184.48,1937.79C1162.09,1924.61 1144.31,1906.65 1131.13,1883.91C1117.96,1861.16 1111.37,1835.53 1111.37,1807.01C1111.37,1807.01 1111.37,1627.87 1111.37,1558.99C1111.37,1544.34 1123.25,1532.46 1137.9,1532.46C1137.9,1532.46 1137.9,1532.46 1137.9,1532.46C1152.56,1532.46 1164.44,1544.34 1164.44,1558.99C1164.44,1627.87 1164.44,1807.01 1164.44,1807.01Z" style="fill:url(#_Linear6);fill-rule:nonzero;"/>
            </g>
        </g>
    </g>
    <defs>
        <linearGradient id="_Linear1" x1="0" y1="0" x2="1" y2="0" gradientUnits="userSpaceOnUse" gradientTransform="matrix(11,0,0,38.9527,467.412,447.121)"><stop offset="0" style="stop-color:rgb(244,75,94);stop-opacity:1"/><stop offset="1" style="stop-color:rgb(152,67,89);stop-opacity:1"/></linearGradient>
        <linearGradient id="_Linear2" x1="0" y1="0" x2="1" y2="0" gradientUnits="userSpaceOnUse" gradientTransform="matrix(298.932,0,0,150.549,772.276,1759.81)"><stop offset="0" style="stop-color:rgb(254,76,95);stop-opacity:1"/><stop offset="1" style="stop-color:rgb(183,70,90);stop-opacity:1"/></linearGradient>
        <linearGradient id="_Linear3" x1="0" y1="0" x2="1" y2="0" gradientUnits="userSpaceOnUse" gradientTransform="matrix(279.166,0,0,177.356,415.143,884.353)"><stop offset="0" style="stop-color:rgb(160,68,89);stop-opacity:1"/><stop offset="1" style="stop-color:rgb(254,76,95);stop-opacity:1"/></linearGradient>
        <linearGradient id="_Linear4" x1="0" y1="0" x2="1" y2="0" gradientUnits="userSpaceOnUse" gradientTransform="matrix(298.932,0,0,301.098,395.376,946.495)"><stop offset="0" style="stop-color:rgb(254,76,95);stop-opacity:1"/><stop offset="1" style="stop-color:rgb(158,68,89);stop-opacity:1"/></linearGradient>
        <linearGradient id="_Linear5" x1="0" y1="0" x2="1" y2="0" gradientUnits="userSpaceOnUse" gradientTransform="matrix(298.932,0,0,150.549,772.276,1759.81)"><stop offset="0" style="stop-color:rgb(254,76,95);stop-opacity:1"/><stop offset="1" style="stop-color:rgb(183,70,90);stop-opacity:1"/></linearGradient>
        <linearGradient id="_Linear6" x1="0" y1="0" x2="1" y2="0" gradientUnits="userSpaceOnUse" gradientTransform="matrix(298.932,0,0,425.096,1111.37,1745.01)"><stop offset="0" style="stop-color:rgb(152,67,89);stop-opacity:1"/><stop offset="1" style="stop-color:rgb(254,76,95);stop-opacity:1"/></linearGradient>
    </defs>
</svg>
