<svg width="37" height="41" viewBox="0 0 37 41" fill="none" xmlns="http://www.w3.org/2000/svg">
<path d="M36.6667 36.3475V8.34747C36.6667 6.14147 34.8727 4.34747 32.6667 4.34747H28.6667V0.347473H24.6667V4.34747H12.6667V0.347473H8.66667V4.34747H4.66667C2.46067 4.34747 0.666672 6.14147 0.666672 8.34747V36.3475C0.666672 38.5535 2.46067 40.3475 4.66667 40.3475H32.6667C34.8727 40.3475 36.6667 38.5535 36.6667 36.3475ZM12.6667 32.3475H8.66667V28.3475H12.6667V32.3475ZM12.6667 24.3475H8.66667V20.3475H12.6667V24.3475ZM20.6667 32.3475H16.6667V28.3475H20.6667V32.3475ZM20.6667 24.3475H16.6667V20.3475H20.6667V24.3475ZM28.6667 32.3475H24.6667V28.3475H28.6667V32.3475ZM28.6667 24.3475H24.6667V20.3475H28.6667V24.3475ZM32.6667 14.3475H4.66667V10.3475H32.6667V14.3475Z" fill="url(#paint0_radial_526_998)"/>
<defs>
<radialGradient id="paint0_radial_526_998" cx="0" cy="0" r="1" gradientUnits="userSpaceOnUse" gradientTransform="translate(18.6667 20.3475) rotate(90) scale(20 18)">
<stop stop-color="#FE4C5F"/>
<stop offset="1" stop-color="#FE4C5F" stop-opacity="0.6"/>
</radialGradient>
</defs>
</svg>
