<svg width="41" height="41" viewBox="0 0 41 41" fill="none" xmlns="http://www.w3.org/2000/svg">
<path d="M37.0083 6.34747C36.2127 6.34747 35.4496 6.66354 34.887 7.22615C34.3244 7.78876 34.0083 8.55182 34.0083 9.34747V18.3475H32.0083V5.34747C32.0083 4.55182 31.6923 3.78876 31.1297 3.22615C30.567 2.66354 29.804 2.34747 29.0083 2.34747C28.2127 2.34747 27.4496 2.66354 26.887 3.22615C26.3244 3.78876 26.0083 4.55182 26.0083 5.34747V18.3475H24.0083V3.34747C24.0083 2.55182 23.6923 1.78876 23.1297 1.22615C22.567 0.663544 21.804 0.347473 21.0083 0.347473C20.2127 0.347473 19.4496 0.663544 18.887 1.22615C18.3244 1.78876 18.0083 2.55182 18.0083 3.34747V18.3475H16.0083V7.34747C16.0083 6.55182 15.6923 5.78876 15.1297 5.22615C14.567 4.66354 13.804 4.34747 13.0083 4.34747C12.2127 4.34747 11.4496 4.66354 10.887 5.22615C10.3244 5.78876 10.0083 6.55182 10.0083 7.34747V28.9675L5.56833 21.7675C5.14929 21.0885 4.4777 20.6038 3.7013 20.4201C2.9249 20.2363 2.10729 20.3684 1.42833 20.7875C0.749378 21.2065 0.264695 21.8781 0.0809098 22.6545C-0.102876 23.4309 0.0292898 24.2485 0.448332 24.9275L7.06833 35.6075C7.96422 37.056 9.21525 38.2518 10.7028 39.0813C12.1903 39.9108 13.8651 40.3466 15.5683 40.3475H30.0083C32.6605 40.3475 35.204 39.2939 37.0794 37.4185C38.9548 35.5432 40.0083 32.9996 40.0083 30.3475V9.34747C40.0083 8.55182 39.6923 7.78876 39.1297 7.22615C38.567 6.66354 37.804 6.34747 37.0083 6.34747Z" fill="url(#paint0_radial_416_927)"/>
<defs>
<radialGradient id="paint0_radial_416_927" cx="0" cy="0" r="1" gradientUnits="userSpaceOnUse" gradientTransform="translate(20.0042 20.3475) rotate(90) scale(20 20.0042)">
<stop stop-color="#FE4C5F"/>
<stop offset="1" stop-color="#FE4C5F" stop-opacity="0.6"/>
</radialGradient>
</defs>
</svg>
