<svg width="41" height="41" viewBox="0 0 41 41" fill="none" xmlns="http://www.w3.org/2000/svg">
<path d="M16.2222 0.347473H2.88889C2.29952 0.347473 1.73429 0.581599 1.31754 0.998347C0.90079 1.41509 0.666664 1.98033 0.666664 2.5697V15.903C0.666664 16.4924 0.90079 17.0576 1.31754 17.4744C1.73429 17.8911 2.29952 18.1253 2.88889 18.1253H16.2222C16.8116 18.1253 17.3768 17.8911 17.7936 17.4744C18.2103 17.0576 18.4444 16.4924 18.4444 15.903V2.5697C18.4444 1.98033 18.2103 1.41509 17.7936 0.998347C17.3768 0.581599 16.8116 0.347473 16.2222 0.347473ZM38.4444 0.347473H25.1111C24.5217 0.347473 23.9565 0.581599 23.5398 0.998347C23.123 1.41509 22.8889 1.98033 22.8889 2.5697V15.903C22.8889 16.4924 23.123 17.0576 23.5398 17.4744C23.9565 17.8911 24.5217 18.1253 25.1111 18.1253H38.4444C39.0338 18.1253 39.599 17.8911 40.0158 17.4744C40.4325 17.0576 40.6667 16.4924 40.6667 15.903V2.5697C40.6667 1.98033 40.4325 1.41509 40.0158 0.998347C39.599 0.581599 39.0338 0.347473 38.4444 0.347473ZM16.2222 22.5697H2.88889C2.29952 22.5697 1.73429 22.8038 1.31754 23.2206C0.90079 23.6373 0.666664 24.2025 0.666664 24.7919V38.1253C0.666664 38.7146 0.90079 39.2799 1.31754 39.6966C1.73429 40.1133 2.29952 40.3475 2.88889 40.3475H16.2222C16.8116 40.3475 17.3768 40.1133 17.7936 39.6966C18.2103 39.2799 18.4444 38.7146 18.4444 38.1253V24.7919C18.4444 24.2025 18.2103 23.6373 17.7936 23.2206C17.3768 22.8038 16.8116 22.5697 16.2222 22.5697ZM34 24.7919H29.5556V29.2364H25.1111V33.6808H29.5556V38.1253H34V33.6808H38.4444V29.2364H34V24.7919Z" fill="url(#paint0_radial_526_345)"/>
<defs>
<radialGradient id="paint0_radial_526_345" cx="0" cy="0" r="1" gradientUnits="userSpaceOnUse" gradientTransform="translate(20.6667 20.3475) rotate(90) scale(20)">
<stop stop-color="#FE4C5F"/>
<stop offset="1" stop-color="#FE4C5F" stop-opacity="0.6"/>
</radialGradient>
</defs>
</svg>
