<svg width="41" height="41" viewBox="0 0 41 41" fill="none" xmlns="http://www.w3.org/2000/svg">
<path d="M22.4202 1.57012C21.6378 0.787502 20.5766 0.347709 19.47 0.347473H4.50616C3.39945 0.347473 2.33807 0.787111 1.55551 1.56967C0.772951 2.35223 0.333313 3.41361 0.333313 4.52032V19.4841C0.333549 20.5908 0.773342 21.652 1.55596 22.4343L18.2473 39.1257C19.0299 39.908 20.091 40.3475 21.1975 40.3475C22.304 40.3475 23.3652 39.908 24.1477 39.1257L39.1116 24.1619C39.8938 23.3794 40.3333 22.3182 40.3333 21.2117C40.3333 20.1052 39.8938 19.044 39.1116 18.2615L22.4202 1.57012ZM10.7654 14.9524C9.65844 14.9522 8.59691 14.5121 7.81435 13.7292C7.03179 12.9462 6.5923 11.8845 6.59258 10.7775C6.59286 9.67052 7.03287 8.60898 7.81582 7.82642C8.59877 7.04386 9.66053 6.60438 10.7675 6.60465C11.8745 6.60493 12.936 7.04494 13.7186 7.8279C14.5012 8.61085 14.9406 9.6726 14.9404 10.7796C14.9401 11.8866 14.5001 12.9481 13.7171 13.7307C12.9342 14.5132 11.8724 14.9527 10.7654 14.9524Z" fill="url(#paint0_radial_526_1018)"/>
<defs>
<radialGradient id="paint0_radial_526_1018" cx="0" cy="0" r="1" gradientUnits="userSpaceOnUse" gradientTransform="translate(20.3333 20.3475) rotate(90) scale(20)">
<stop stop-color="#FE4C5F"/>
<stop offset="1" stop-color="#FE4C5F" stop-opacity="0.6"/>
</radialGradient>
</defs>
</svg>
