<svg width="41" height="41" viewBox="0 0 41 41" fill="none" xmlns="http://www.w3.org/2000/svg">
<path d="M34.0175 17.1896V10.8738C34.0175 8.55168 32.1291 6.66326 29.807 6.66326H23.4912C23.4912 3.18116 20.6575 0.347473 17.1754 0.347473C13.6933 0.347473 10.8596 3.18116 10.8596 6.66326H4.54384C2.22173 6.66326 0.333313 8.55168 0.333313 10.8738V19.2948H2.43858C3.55528 19.2948 4.62624 19.7385 5.41587 20.5281C6.20549 21.3177 6.6491 22.3887 6.6491 23.5054C6.6491 24.6221 6.20549 25.693 5.41587 26.4827C4.62624 27.2723 3.55528 27.7159 2.43858 27.7159H0.333313V36.1369C0.333313 38.4591 2.22173 40.3475 4.54384 40.3475H12.9649V38.2422C12.9649 37.1255 13.4085 36.0545 14.1981 35.2649C14.9878 34.4753 16.0587 34.0317 17.1754 34.0317C18.2921 34.0317 19.3631 34.4753 20.1527 35.2649C20.9423 36.0545 21.3859 37.1255 21.3859 38.2422V40.3475H29.807C32.1291 40.3475 34.0175 38.4591 34.0175 36.1369V29.8212C37.4996 29.8212 40.3333 26.9875 40.3333 23.5054C40.3333 20.0233 37.4996 17.1896 34.0175 17.1896Z" fill="url(#paint0_radial_526_1007)"/>
<defs>
<radialGradient id="paint0_radial_526_1007" cx="0" cy="0" r="1" gradientUnits="userSpaceOnUse" gradientTransform="translate(20.3333 20.3475) rotate(90) scale(20)">
<stop stop-color="#FE4C5F"/>
<stop offset="1" stop-color="#FE4C5F" stop-opacity="0.6"/>
</radialGradient>
</defs>
</svg>
